<?xml version="1.0" encoding="UTF-8" standalone="no" ?>
<!DOCTYPE svg PUBLIC "-//W3C//DTD SVG 1.1//EN" "http://www.w3.org/Graphics/SVG/1.1/DTD/svg11.dtd">
<svg xmlns="http://www.w3.org/2000/svg" xmlns:xlink="http://www.w3.org/1999/xlink" version="1.1" width="1080" height="1080" viewBox="0 0 1080 1080" xml:space="preserve">
<desc>Created with Fabric.js 5.2.4</desc>
<defs>
</defs>
<g transform="matrix(1 0 0 1 540 540)" id="3c11cf17-2d0d-4fb3-97db-54808abd0534"  >
<rect style="stroke: none; stroke-width: 1; stroke-dasharray: none; stroke-linecap: butt; stroke-dashoffset: 0; stroke-linejoin: miter; stroke-miterlimit: 4; fill: rgb(255,255,255); fill-rule: nonzero; opacity: 1; visibility: hidden;" vector-effect="non-scaling-stroke"  x="-540" y="-540" rx="0" ry="0" width="1080" height="1080" />
</g>
<g transform="matrix(1 0 0 1 540 540)" id="4d9e0ba0-aeb4-4037-a10d-908676c6ef10"  >
</g>
<g transform="matrix(1.38 0 0 1.38 390.64 304.47)"  >
<rect style="stroke: none; stroke-width: 1; stroke-dasharray: none; stroke-linecap: butt; stroke-dashoffset: 0; stroke-linejoin: miter; stroke-miterlimit: 4; fill: rgb(255,255,255); fill-opacity: 0; fill-rule: nonzero; opacity: 1;" vector-effect="non-scaling-stroke"  x="-50" y="-50" rx="0" ry="0" width="100" height="100" />
</g>
<g transform="matrix(1.38 0 0 1.38 540 540)"  >
<path style="stroke: none; stroke-width: 1; stroke-dasharray: none; stroke-linecap: butt; stroke-dashoffset: 0; stroke-linejoin: miter; stroke-miterlimit: 4; fill: rgb(0,0,0); fill-rule: nonzero; opacity: 1;" vector-effect="non-scaling-stroke"  transform=" translate(-408, -408)" d="M 693.705 807.997 L 122.29500000000007 807.997 C 59.27700000000007 807.997 8.013000000000076 756.732 8.013000000000076 693.712 L 8.013000000000076 122.288 C 8.013000000000076 59.267999999999994 59.27700000000008 8.003 122.29500000000007 8.003 L 693.705 8.003 C 756.7230000000001 8.003 807.9870000000001 59.268 807.9870000000001 122.288 L 807.9870000000001 693.712 C 807.9870000000001 756.732 756.7230000000001 807.997 693.705 807.997" stroke-linecap="round" />
</g>
<g transform="matrix(12.92 0 0 12.92 531.18 539.31)"  >
<path style="stroke: none; stroke-width: 1; stroke-dasharray: none; stroke-linecap: butt; stroke-dashoffset: 0; stroke-linejoin: miter; stroke-miterlimit: 4; fill: rgb(255,255,255); fill-rule: nonzero; opacity: 1;" vector-effect="non-scaling-stroke"  paint-order="stroke"  transform=" translate(-49.45, -49.9)" d="M 55.8 88.2 C 34.699999999999996 88.2 17.5 71 17.5 49.900000000000006 C 17.5 29.200000000000006 33.7 12.400000000000006 54.4 11.600000000000009 C 55 11.600000000000009 55.6 12.000000000000009 55.9 12.500000000000009 C 56.1 13.100000000000009 56 13.80000000000001 55.5 14.200000000000008 C 44.281729318418826 23.81714234897182 40.24042388977692 39.4037491770353 45.372444798368946 53.260205630233756 C 50.50446570696098 67.1166620834322 63.72370430981988 76.31047482575464 78.50000000000003 76.30000000000001 L 79.8 76.30000000000001 C 80.39999999999999 76.30000000000001 81 76.70000000000002 81.3 77.20000000000002 C 81.5 77.80000000000001 81.39999999999999 78.50000000000001 80.89999999999999 78.90000000000002 C 73.89999999999999 84.90000000000002 64.99999999999999 88.20000000000002 55.79999999999999 88.20000000000002 M 50.39999999999999 15.100000000000023 C 33.39999999999999 17.700000000000024 20.59999999999999 32.300000000000026 20.59999999999999 50.00000000000002 C 20.59999999999999 69.49600000000002 36.40399999999999 85.30000000000001 55.89999999999999 85.30000000000001 C 62.99999999999999 85.30000000000001 69.8 83.20000000000002 75.6 79.20000000000002 C 55.8 77.6 40.2 61.1 40.2 41 C 40.2 31.3 43.900000000000006 22.1 50.400000000000006 15.100000000000001" stroke-linecap="round" />
</g>
<g transform="matrix(1.38 0 0 1.38 700.69 745.73)"  >
<path style="stroke: none; stroke-width: 1; stroke-dasharray: none; stroke-linecap: butt; stroke-dashoffset: 0; stroke-linejoin: miter; stroke-miterlimit: 4; fill: rgb(255,255,255); fill-rule: nonzero; opacity: 1;" vector-effect="non-scaling-stroke"  paint-order="stroke"  transform=" translate(-524.78, -557.5)" d="M 610.663 665.18 L 685.25 665.18 C 689.3578938392701 665.1799998583759 692.6879996671875 662.614143801137 692.6879996671875 659.449 C 692.6879996671875 656.283856198863 689.3578938392701 653.718000141624 685.25 653.718 L 618.153 653.718 L 618.153 616.1039999999999 C 618.153 612.9559999999999 614.8530000000001 610.3729999999999 610.716 610.3729999999999 L 608.096 610.3729999999999 L 608.096 604.5609999999999 C 608.096 603.5519999999999 607.049 602.7049999999999 605.687 602.7049999999999 L 552.052 602.7049999999999 L 552.052 557.502 C 552.052 554.3539999999999 548.7 551.7719999999999 544.562 551.7719999999999 L 485.9 551.7719999999999 L 485.9 514.1969999999999 C 485.9 511.0089999999999 482.548 508.46699999999987 478.462 508.46699999999987 L 475.84299999999996 508.46699999999987 L 475.84299999999996 502.37199999999984 C 475.84299999999996 501.32199999999983 474.74299999999994 500.51599999999985 473.43299999999994 500.51599999999985 L 419.64199999999994 500.51599999999985 L 419.64199999999994 455.55599999999987 C 419.64199999999994 452.40799999999984 416.28999999999996 449.8249999999999 412.20399999999995 449.8249999999999 L 364.33 449.8249999999999 C 360.20774662726296 449.8249999999999 356.866 452.399810403723 356.866 455.5759999999999 C 356.866 458.75218959627676 360.20774662726296 461.3269999999999 364.33 461.3269999999999 L 404.765 461.3269999999999 L 404.765 498.4569999999999 C 404.765 501.6459999999999 408.118 504.22899999999987 412.203 504.22899999999987 L 414.822 504.22899999999987 L 414.822 510.28199999999987 C 414.822 511.3319999999999 415.87 512.1789999999999 417.232 512.1789999999999 L 470.97200000000004 512.1789999999999 L 470.97200000000004 557.5019999999998 C 470.97200000000004 560.6499999999999 474.32300000000004 563.2329999999998 478.46200000000005 563.2329999999998 L 537.125 563.2329999999998 L 537.125 600.6869999999998 C 537.125 603.8749999999998 540.477 606.4169999999998 544.562 606.4169999999998 L 547.182 606.4169999999998 L 547.182 612.2289999999998 C 547.182 613.2789999999998 548.282 614.0859999999998 549.642 614.0859999999998 L 603.2260000000001 614.0859999999998 L 603.2260000000001 659.4489999999998 C 603.2260000000001 662.5969999999999 606.5780000000001 665.1799999999998 610.6630000000001 665.1799999999998 M 685.2500000000001 657.4309999999998 C 686.6964335910685 657.4310001838713 687.8689995679184 658.3344895048581 687.8689995679184 659.4489999999998 C 687.8689995679184 660.5635104951415 686.6964335910685 661.4669998161282 685.2500000000001 661.4669999999998 L 610.6630000000001 661.4669999999998 C 609.9683980131103 661.4669999999998 609.302245115228 661.2543898961424 608.8110873400725 660.8759414844342 C 608.3199295649171 660.4974930727261 608.0440000000001 659.9842068764959 608.0440000000001 659.4489999999997 L 608.0440000000001 614.0859999999998 L 610.6640000000001 614.0859999999998 C 612.1100432200855 614.0864254332897 613.2820001054098 614.9897902134977 613.2820000000002 616.1039999999998 L 613.2820000000002 655.5739999999998 C 613.2820000000002 656.5839999999998 614.3820000000002 657.4309999999998 615.6920000000001 657.4309999999998 z M 603.2260000000001 610.3729999999998 L 552 610.3729999999998 L 552 606.4179999999998 L 603.226 606.4179999999998 z M 547.1810000000002 602.7049999999998 L 544.5620000000001 602.7049999999998 C 543.8673980131103 602.7049999999998 543.201245115228 602.4923898961424 542.7100873400725 602.1139414844342 C 542.2189295649171 601.7354930727262 541.9430000000001 601.222206876496 541.9430000000001 600.6869999999998 L 541.9430000000001 561.3769999999997 C 541.9430000000001 560.3679999999997 540.8430000000001 559.5199999999998 539.4820000000001 559.5199999999998 L 478.3560000000001 559.5199999999998 C 476.90995677991475 559.5195745667097 475.7379998945905 558.6162097865018 475.7380000000001 557.5019999999997 L 475.7380000000001 512.22 L 478.3560000000001 512.22 C 479.0507752319933 512.2197955935835 479.7171850618081 512.4323154565585 480.20855914029244 512.8107860254064 C 480.6999332187768 513.1892565942543 480.9760000506459 513.7026595951259 480.9760000000001 514.238 L 480.9760000000001 553.668 C 480.9760000000001 554.678 482.07600000000014 555.525 483.4370000000001 555.525 L 544.5100000000001 555.525 C 545.2046019868899 555.525 545.8707548847723 555.7376101038574 546.3619126599277 556.1160585155656 C 546.8530704350832 556.4945069272736 547.1290000000001 557.0077931235038 547.1290000000001 557.543 z M 470.91900000000015 508.4659999999998 L 419.69300000000015 508.4659999999998 L 419.69300000000015 504.1479999999998 L 470.91900000000015 504.1479999999998 z M 414.87400000000014 500.5159999999998 L 412.2550000000001 500.5159999999998 C 410.8089567799148 500.5155745667098 409.6369998945905 499.61220978650186 409.6370000000001 498.4979999999998 L 409.6370000000001 459.47 C 409.6370000000001 458.42100000000005 408.5370000000001 457.61400000000003 407.2270000000001 457.61400000000003 L 364.38200000000006 457.61400000000003 C 362.9355662401932 457.61400000000003 361.76300000000003 456.7105106251586 361.76300000000003 455.596 C 361.76300000000003 454.4814893748415 362.9355662401932 453.57800000000003 364.38200000000006 453.57800000000003 L 412.25500000000005 453.57800000000003 C 412.94977523199327 453.5777955935835 413.616185061808 453.79031545655846 414.1075591402924 454.16878602540635 C 414.5989332187767 454.54725659425424 414.87500005064584 455.0606595951258 414.87500000000006 455.596 z" stroke-linecap="round" />
</g>
<g transform="matrix(6.1 0 0 6.1 863.21 490.46)"  >
<path style="stroke: none; stroke-width: 1; stroke-dasharray: none; stroke-linecap: butt; stroke-dashoffset: 0; stroke-linejoin: miter; stroke-miterlimit: 4; fill: rgb(255,255,255); fill-rule: nonzero; opacity: 1;" vector-effect="non-scaling-stroke"  paint-order="stroke"  transform=" translate(-47.01, -23.63)" d="M 45.31 18.34 C 45.31 18.34 44.550000000000004 19.04 44.27 19.72 C 44.040000000000006 20.25 43.63 25.32 44.7 27.32 C 45.77 29.32 46.06 29.25 46.6 29.47 C 47.14 29.689999999999998 48.75 28.66 49.53 26.07 C 50.31 23.48 50.1 21.78 49.25 19.310000000000002 C 48.4 16.840000000000003 45.8 17.96 45.31 18.340000000000003" stroke-linecap="round" />
</g>
<g transform="matrix(6.1 0 0 6.1 877.29 718.47)"  >
<path style="stroke: none; stroke-width: 1; stroke-dasharray: none; stroke-linecap: butt; stroke-dashoffset: 0; stroke-linejoin: miter; stroke-miterlimit: 4; fill: rgb(255,255,255); fill-rule: nonzero; opacity: 1;" vector-effect="non-scaling-stroke"  paint-order="stroke"  transform=" translate(-49.32, -61.01)" d="M 43.9 48.66 C 43.9 48.66 42.72 50.589999999999996 41.629999999999995 50.459999999999994 C 40.53999999999999 50.32999999999999 38.19 49.43999999999999 37.74999999999999 45.94 C 37.309999999999995 42.44 38.64999999999999 40.66 39.379999999999995 40.089999999999996 C 40.10999999999999 39.519999999999996 47.879999999999995 31.789999999999996 57.17999999999999 31.439999999999998 C 66.47999999999999 31.089999999999996 55.879999999999995 40.059999999999995 54.99999999999999 41.559999999999995 C 54.11999999999999 43.059999999999995 53.57999999999999 44.76 53.53999999999999 46.209999999999994 C 53.49999999999999 47.66 54.07999999999999 48.82999999999999 55.28999999999999 49.57999999999999 C 56.49999999999999 50.32999999999999 57.01999999999999 50.79999999999999 56.879999999999995 51.62999999999999 C 56.73 52.45999999999999 55.74999999999999 53.65999999999999 55.03999999999999 54.58999999999999 C 54.40999999999999 55.40999999999999 51.15999999999999 57.98999999999999 50.739999999999995 60.77999999999999 C 50.31999999999999 63.569999999999986 50.959999999999994 66.91999999999999 52.24999999999999 70.49999999999999 C 53.53999999999999 74.07999999999998 52.599999999999994 78.91999999999999 52.43999999999999 80.12999999999998 C 52.279999999999994 81.33999999999997 50.99999999999999 89.19999999999999 51.49999999999999 90.57999999999998" stroke-linecap="round" />
</g>
<g transform="matrix(6.1 0 0 6.1 866.26 493.51)"  >
<path style="stroke: none; stroke-width: 1; stroke-dasharray: none; stroke-linecap: butt; stroke-dashoffset: 0; stroke-linejoin: miter; stroke-miterlimit: 4; fill: rgb(255,255,255); fill-rule: nonzero; opacity: 1;" vector-effect="non-scaling-stroke"  paint-order="stroke"  transform=" translate(-47.01, -23.63)" d="M 45.31 18.34 C 45.31 18.34 44.550000000000004 19.04 44.27 19.72 C 44.040000000000006 20.25 43.63 25.32 44.7 27.32 C 45.77 29.32 46.06 29.25 46.6 29.47 C 47.14 29.689999999999998 48.75 28.66 49.53 26.07 C 50.31 23.48 50.1 21.78 49.25 19.310000000000002 C 48.4 16.840000000000003 45.8 17.96 45.31 18.340000000000003" stroke-linecap="round" />
</g>
<g transform="matrix(6.1 0 0 6.1 880.33 721.52)"  >
<path style="stroke: none; stroke-width: 1; stroke-dasharray: none; stroke-linecap: butt; stroke-dashoffset: 0; stroke-linejoin: miter; stroke-miterlimit: 4; fill: rgb(255,255,255); fill-rule: nonzero; opacity: 1;" vector-effect="non-scaling-stroke"  paint-order="stroke"  transform=" translate(-49.32, -61.01)" d="M 43.9 48.66 C 43.9 48.66 42.72 50.589999999999996 41.629999999999995 50.459999999999994 C 40.53999999999999 50.32999999999999 38.19 49.43999999999999 37.74999999999999 45.94 C 37.309999999999995 42.44 38.64999999999999 40.66 39.379999999999995 40.089999999999996 C 40.10999999999999 39.519999999999996 47.879999999999995 31.789999999999996 57.17999999999999 31.439999999999998 C 66.47999999999999 31.089999999999996 55.879999999999995 40.059999999999995 54.99999999999999 41.559999999999995 C 54.11999999999999 43.059999999999995 53.57999999999999 44.76 53.53999999999999 46.209999999999994 C 53.49999999999999 47.66 54.07999999999999 48.82999999999999 55.28999999999999 49.57999999999999 C 56.49999999999999 50.32999999999999 57.01999999999999 50.79999999999999 56.879999999999995 51.62999999999999 C 56.73 52.45999999999999 55.74999999999999 53.65999999999999 55.03999999999999 54.58999999999999 C 54.40999999999999 55.40999999999999 51.15999999999999 57.98999999999999 50.739999999999995 60.77999999999999 C 50.31999999999999 63.569999999999986 50.959999999999994 66.91999999999999 52.24999999999999 70.49999999999999 C 53.53999999999999 74.07999999999998 52.599999999999994 78.91999999999999 52.43999999999999 80.12999999999998 C 52.279999999999994 81.33999999999997 50.99999999999999 89.19999999999999 51.49999999999999 90.57999999999998" stroke-linecap="round" />
</g>
</svg>